<svg xmlns="http://www.w3.org/2000/svg" viewBox=".04 .05 735.69 168.08">
  <path d="M90.58 10.05q11.53-.41 16.06-.41 13.38 0 15.44 1a6.09 6.09 0 0 1 3.71 5.76q0 4.33-4.74 8.45-8.85 7.2-24.29 30.26A204.68 204.68 0 0 1 84.51 72.3q-4.85 5.86-20.07 22.34-16.68 17.91-23.27 25.52-6.18 7-16.26 19.87t-10.09 13.48h.62q3.09 0 10.09-.61 11.52-.85 15.85-.85c3.43 0 5.14-.2 5.14-.61s3-.69 9.06-1.24a142.25 142.25 0 0 0 17.75-1.83 148.51 148.51 0 0 1 20.17-1.44q10.29 0 15.65 1.44 4.32 1.44 5.76 3.5c.83 1.37 1 2.19.42 2.47a3.24 3.24 0 0 0-1.65 2.06q-1 2.88-16.06 4.73-8.24 1-15.85 2.68a184.81 184.81 0 0 1-21.1 3.5q-8.76.81-25.84.82-22.23 0-28.1-1.34t-6.49-6.48a4 4 0 0 0-.1-.72 4.27 4.27 0 0 1-.1-.72q0-2.48 3.09-9.47 5.15-11.94 16.88-28l5.56-8q0-2.47 35.41-40.35a241.16 241.16 0 0 0 21-24.71q9.27-11.92 14-16.47l5.56-5.35-12.35.62q-11.73.61-33.76.62-36.24 0-43-1-10.09-1.65-10.09-7a9.65 9.65 0 0 1 .21-2.27q.82-3.28 9.47-4.32t44.8-2.12l14.92-.41q8.13-.21 13-.41c3.2-.18 5.15-.18 5.84-.18Zm59.15 19.74a8.87 8.87 0 0 1 5.76-2.47 6.91 6.91 0 0 1 5.56 2.73 11.25 11.25 0 0 1 2.28 7.35 8.61 8.61 0 0 1-2.47 6 8.21 8.21 0 0 1-5.53 2.86h-.21a8 8 0 0 1-6.28-2.68 9.29 9.29 0 0 1-2.37-6.38 9.78 9.78 0 0 1 3.26-7.41Zm2.47 26.35a5.43 5.43 0 0 1 3.29-1.24q4.53 0 6.38 6.59 4.13 14.41 4.12 39.12 0 24.49-4.73 29.85c-1 1.23-1.24 2.13-.83 2.67a3.72 3.72 0 0 1-2.88 4.12c-.55 0-1.41-.62-2.57-1.85a16.24 16.24 0 0 1-2.78-3.91q-2.06-3.91-2.47-18.12 0-2.47-.21-6.69c-.14-2.81-.31-6.11-.51-9.88s-.38-6.62-.52-8.55q-.41-5.34-.41-13.79 0-15.03 4.12-18.32Zm69.27-11.67a16.71 16.71 0 0 1 7.41-1.42 20.89 20.89 0 0 1 9.06 1.86 14.92 14.92 0 0 1 8.44 8.64c1 1.93 1 3.5 0 4.74q-1 1.84-4.32 1.85a47.19 47.19 0 0 1-4.74-.21l-7.82-.41-5.35 4.74a62.77 62.77 0 0 0-8.24 9.47l-2.88 4.53 1.44 16.47q1 13.78 1 19.55 0 14-5.56 14h-.41q-4.12-.19-6.18-4.63t-4.53-19a209.11 209.11 0 0 1-2.67-35q0-11.94 1.23-15.23c1.24-3.57 3.36-5.36 6.38-5.36a6.69 6.69 0 0 1 5.36 2.89c.41.55.75.82 1 .82.54 0 1.92-1 4.11-3.09a28.32 28.32 0 0 1 7.27-5.21Zm46.77-17.36a2.93 2.93 0 0 1 3.09-1.85c1.51.27 2.95 1.82 4.33 4.63a43 43 0 0 1 3.29 11l1.44 6.8 2.68-.62a30.52 30.52 0 0 1 7-.62 56.83 56.83 0 0 1 11.73 1 39.12 39.12 0 0 1 23.16 14.82 43.08 43.08 0 0 1 8.75 26.78v2.26a35.06 35.06 0 0 1-2.88 12.77q-9.67 20.17-33.35 20.17a31.62 31.62 0 0 1-11.15-1.62l-4.32-1.64-2.44 2.06a12.51 12.51 0 0 1-8 2.47 6.88 6.88 0 0 1-3.09-.62q-6-3.3-6-20.79c0-1.38.13-3.85.41-7.42a105.52 105.52 0 0 1 1.44-11.94q2.67-11.92 2.68-36.44 0-17.91 1.23-21.2Zm33.77 38.09q-4.53-1.65-12.56-1.65a11.18 11.18 0 0 0-2.68.2c-1.23.42-2.06 2.27-2.47 5.56s-.75 10-1 20.18l-.2 19.76 2.88 1.24a17.37 17.37 0 0 0 6.59 1 37.78 37.78 0 0 0 12.76-2.03q12.55-4.12 12.56-19.15a29 29 0 0 0-4.43-15.44 21.86 21.86 0 0 0-11.45-9.67Zm79.11-18.74a41.45 41.45 0 0 1 8.65-1 32.79 32.79 0 0 1 15.85 3.91 24 24 0 0 1 10.5 10.68q1.44 3.09 1.44 15v11.56l-2.47 2.44a7.14 7.14 0 0 1-4.94 2.47h-31.71l-8 .2.41 3.92q.83 6.38 3.91 9.67t10.29 6a35.21 35.21 0 0 0 12.36 2.47 23 23 0 0 0 8-1.44 16.29 16.29 0 0 1 6-1.44c2.34 0 3.5 1.31 3.5 3.91q0 1.86-3.91 5.56a25 25 0 0 1-17.5 6.59 46.6 46.6 0 0 1-11.32-1.44q-20.6-5-25.73-20.18-2.89-8.24-2.88-21.41a42 42 0 0 1 .41-7.21 36.15 36.15 0 0 1 27.17-30.26Zm15.85 17.29a17.08 17.08 0 0 0-6.38-1.23 20.54 20.54 0 0 0-12.35 4.22 17.75 17.75 0 0 0-7.21 10.6 4.82 4.82 0 0 0-.2 1.44c0 .42.27.62.82.62a25.63 25.63 0 0 0 4.12-.62q2.47-.41 13.48-1.75t12.66-1.33q.42 0 .42-1.65a17.8 17.8 0 0 0-1.44-7.82c-.56-.83-1.86-1.65-3.92-2.48Zm49.55-38.29a6.57 6.57 0 0 1 3.5-1 6.08 6.08 0 0 1 5.15 2.47q1.65 2.07 2.27 15 .4 11.12.41 19.77 0 46.32-3.3 59.9l-.82 3.71-3.71.21q-3.92.19-5.55-1.65c-1.24-1.24-2.13-5.28-2.68-12.15q-1.46-14.2-1.46-35.82 0-8 .41-13.79 1.23-13.59 1.65-18.74 1.25-15.84 4.13-17.91Zm39.4 4.33a8.91 8.91 0 0 1 5.77-2.47 6.93 6.93 0 0 1 5.56 2.73 11.24 11.24 0 0 1 2.26 7.31 8.57 8.57 0 0 1-2.47 6 8.19 8.19 0 0 1-5.56 2.89h-.15a8 8 0 0 1-6.28-2.68 9.29 9.29 0 0 1-2.37-6.38 9.81 9.81 0 0 1 3.24-7.4Zm11.26 100.86a5.51 5.51 0 0 1-3.3 1.23q-4.53 0-6.38-6.59-4.11-14.42-4.12-39.11 0-24.51 4.74-29.85c1-1.24 5.3-4.33 9.06-1q2.05 3.9 2.47 18.11 0 2.48.2 6.69t.52 9.89c.2 3.77.38 6.62.51 8.54q.42 5.35.41 13.79.04 15-4.11 18.3Zm58.61-88.51a34.73 34.73 0 0 1 5.76-.41h2.47q15 .62 22.24 15.85a42 42 0 0 1 3.39 12.87q.72 6.9.72 28.51 0 29.44.41 33.35c.14 1.37.21 3 .21 4.94a5.75 5.75 0 0 1-.82 3.5 2.19 2.19 0 0 1-3.09.62q-6.79-3.7-9.88-22.85-.42-3.3-1.55-22.24t-1.54-22.23q-2.26-15.45-11.12-15.44a12.78 12.78 0 0 0-5.76 1.44q-6.79 3.3-10.5 14.82-5.14 16.28-5.15 26.15c0 3.29.07 6 .21 8.23q.19 4.32.2 9.47 0 4.53-1.44 6.8a11.31 11.31 0 0 1-4.12 3.5 7.27 7.27 0 0 1-2.88.61c-2.88 0-5.15-2-6.79-6s-2.43-9.5-2.43-16.64v-3.94q1-25.32 2.26-35.31t3.5-12.25a4.58 4.58 0 0 1 1.85-1.34c.42-.07 1 .24 1.65.93a1.8 1.8 0 0 0 1.24.62c.68 0 2.4-1.31 5.14-3.92q8.2-7.79 15.82-9.64Zm74.54 6.59a24.24 24.24 0 0 1 5.77-.83 19.57 19.57 0 0 1 6.17 1 54.55 54.55 0 0 0 10.09 1.44q11.54.61 20.18 10.09 12.79 13.62 12.79 30.5a46.24 46.24 0 0 1-1.65 12.76q-3.92 14.42-11.42 22a24.42 24.42 0 0 1-18 7.62 36.54 36.54 0 0 1-8-1q-15-3.91-24.08-13a45.64 45.64 0 0 1-7.85-11.19 55.22 55.22 0 0 1-5.14-13.69 53.81 53.81 0 0 1-1-9.68 43.35 43.35 0 0 1 6.28-23q6.21-10.35 15.86-13.02Zm19.8 12.32c-4.4-1.78-7.42-2.68-9.06-2.68a10.7 10.7 0 0 0-3.3.62q-10.91 3.5-13.38 17.91a36.4 36.4 0 0 0-.41 4.94q0 14.82 8.65 24.09 5.55 6.18 17.7 9.26a22.58 22.58 0 0 0 4.94.83 7 7 0 0 0 3.09-.83q3.5-1.64 6.9-9a47.29 47.29 0 0 0 4.22-14.72v-1.44q0-6.18-3.61-13.8t-8.13-11.11a28.91 28.91 0 0 0-7.61-4.07Zm61.32-61a24.75 24.75 0 0 1 12 3.13 22.61 22.61 0 0 1 9 9 24.43 24.43 0 0 1 .06 24.35 23 23 0 0 1-9 9 24.42 24.42 0 0 1-24.24 0 23 23 0 0 1-9-9 24.4 24.4 0 0 1 .07-24.35 22.53 22.53 0 0 1 9-9A24.78 24.78 0 0 1 711.45.05Zm0 4.76a19.88 19.88 0 0 0-9.62 2.51 18.31 18.31 0 0 0-7.26 7.21 19.64 19.64 0 0 0-.06 19.6 18.44 18.44 0 0 0 7.22 7.25 19.51 19.51 0 0 0 19.46 0 18.66 18.66 0 0 0 7.26-7.33 19.61 19.61 0 0 0 0-19.6 18.23 18.23 0 0 0-7.28-7.21 20 20 0 0 0-9.69-2.48Zm-11 32.6V11.53h5.24c4.91 0 7.67 0 8.26.06a10.16 10.16 0 0 1 4 1 6.44 6.44 0 0 1 2.41 2.47 7.2 7.2 0 0 1 1 3.7 6.78 6.78 0 0 1-1.82 4.78 8.32 8.32 0 0 1-5.1 2.51 6.42 6.42 0 0 1 1.81 1 13.2 13.2 0 0 1 1.75 2c.19.25.82 1.3 1.9 3.15l3 5.21h-6.48l-2.09-4.25c-1.46-2.81-2.67-4.59-3.62-5.32a5.77 5.77 0 0 0-3.62-1.09h-1.37v10.61Zm5.24-14.68h2.13a26.07 26.07 0 0 0 5.64-.35 3.3 3.3 0 0 0 1.73-1.22 3.34 3.34 0 0 0 .63-2 3.16 3.16 0 0 0-.61-1.92 3.5 3.5 0 0 0-1.77-1.21 25.36 25.36 0 0 0-5.62-.36h-2.13Z" fill="#fff"/>
</svg>
